<svg xmlns="http://www.w3.org/2000/svg" viewBox="0 0 254.09 220.24"><defs><style>.cls-1{fill:#29333c;}</style></defs><title>Ресурс 2</title><g id="Слой_2" data-name="Слой 2"><g id="Слой_1-2" data-name="Слой 1"><path class="cls-1" d="M209.54,0,157.35,97.66l-30.27-63L96.65,98.2,44.36,0H0L72.39,158.61l24.36-49.7,27,49.7h5.63L157,108.72l24.17,49.89L254.09,0ZM72.65,147.65,7.34,6H42l52,97.5ZM127,153.39,98.8,102.9,127,45.39l27.87,58.44Zm32.89-49.76,52-97.5h34.67L181.25,147.78Z"/><path class="cls-1" d="M56.85,177.82,45.42,219.54H37.56l-7.82-28.81a21.49,21.49,0,0,1-.67-4.45H29a23.23,23.23,0,0,1-.28,2.33,16.15,16.15,0,0,1-.48,2.1l-7.94,28.83h-8L.58,177.82h7.6l7.53,30.11a17.64,17.64,0,0,1,.39,2,23.66,23.66,0,0,1,.22,2.41h.18a17.23,17.23,0,0,1,.27-2.08c.15-.74.35-1.56.6-2.43l8.47-30.05H33l7.91,30.34a15.54,15.54,0,0,1,.41,1.84c.11.69.21,1.47.29,2.32h.11a19.5,19.5,0,0,1,.25-2q.2-1.06.45-2.28l7.28-30.2Z"/><path class="cls-1" d="M87.32,219.54h-7V177.82h7Z"/><path class="cls-1" d="M141.93,183.69H130v35.85h-7V183.69H111.09v-5.87h30.84Z"/><path class="cls-1" d="M182.87,220.24q-8.94,0-14.41-5.84T163,199.2q0-10,5.58-16t15-6q8.78,0,14.17,5.83t5.38,15.32q0,10-5.54,16T182.87,220.24Zm.08-6.05a11.72,11.72,0,0,0,9.4-4.05q3.47-4,3.46-11.29,0-7.44-3.36-11.55a11.27,11.27,0,0,0-9.2-4.1,11.64,11.64,0,0,0-9.42,4.28q-3.56,4.28-3.56,11.26t3.5,11.24A11.4,11.4,0,0,0,183,214.19Z"/><path class="cls-1" d="M224.77,216.54l3.08-5.32a22.09,22.09,0,0,0,5.27,2.46,19.65,19.65,0,0,0,5.47.71,9.25,9.25,0,0,0,5.68-1.56,5.21,5.21,0,0,0,2.08-4.46,5.27,5.27,0,0,0-1.73-4.18,16.58,16.58,0,0,0-5.86-2.81q-6.37-1.89-9.37-4.68a9.83,9.83,0,0,1-3-7.57,11,11,0,0,1,3.87-8.59q3.87-3.42,10.51-3.42a25.57,25.57,0,0,1,11.32,2.62l-2.59,5.52a20.64,20.64,0,0,0-4.61-1.77,19.23,19.23,0,0,0-4.47-.52,8.41,8.41,0,0,0-5.22,1.45,4.87,4.87,0,0,0-1.91,4.1,4.42,4.42,0,0,0,1.75,3.71,20.05,20.05,0,0,0,6,2.67q6.51,1.95,9.38,4.85a10.92,10.92,0,0,1,2.87,8,11.53,11.53,0,0,1-3.9,9q-3.9,3.51-11.11,3.51a27.28,27.28,0,0,1-7.05-.92A24.12,24.12,0,0,1,224.77,216.54Z"/></g></g></svg>